HIERARCHY
ROOT Hips
{
	OFFSET 0.000000 71.427986 0.000000
	CHANNELS 6 Xposition Yposition Zposition Xrotation Yrotation Zrotation
	JOINT Pelvis
	{
		OFFSET 0.000000 0.000000 0.000000
		CHANNELS 3 Xrotation Yrotation Zrotation
		JOINT LeftUpLeg
		{
			OFFSET 6.797100 -2.508499 -1.318700
			CHANNELS 3 Xrotation Yrotation Zrotation
			JOINT LeftLeg
			{
				OFFSET 0.069008 -29.241863 0.690200
				CHANNELS 3 Xrotation Yrotation Zrotation
				JOINT LeftFoot
				{
					OFFSET -0.069008 -29.568123 -0.266800
					CHANNELS 3 Xrotation Yrotation Zrotation
					JOINT LeftToeBase
					{
						OFFSET 3.145500 -8.631000 16.059900
						CHANNELS 3 Xrotation Yrotation Zrotation
						End Site
						{
							OFFSET 0.000000 18.501587 0.000000
						}
					}
				}
			}
			JOINT Left_ShortSleeve
			{
				OFFSET 0.265923 -10.480953 1.153800
				CHANNELS 3 Xrotation Yrotation Zrotation
				End Site
				{
					OFFSET 1.725763 19.823879 0.000000
				}
			}
		}
		JOINT RightUpLeg
		{
			OFFSET -6.797100 -2.508499 -1.318700
			CHANNELS 3 Xrotation Yrotation Zrotation
			JOINT RightLeg
			{
				OFFSET -0.082453 -29.241932 0.688000
				CHANNELS 3 Xrotation Yrotation Zrotation
				JOINT RightFoot
				{
					OFFSET 0.082453 -29.568058 -0.264600
					CHANNELS 3 Xrotation Yrotation Zrotation
					JOINT RightToeBase
					{
						OFFSET -3.115300 -8.682800 16.113400
						CHANNELS 3 Xrotation Yrotation Zrotation
						End Site
						{
							OFFSET 0.000000 18.567114 0.000000
						}
					}
				}
			}
			JOINT Right_ShortSleeve
			{
				OFFSET -0.265923 -10.480953 1.153800
				CHANNELS 3 Xrotation Yrotation Zrotation
				End Site
				{
					OFFSET -1.725766 19.823910 0.000000
				}
			}
		}
	}
	JOINT Spine
	{
		OFFSET 0.000000 13.368103 0.470500
		CHANNELS 3 Xrotation Yrotation Zrotation
		JOINT Spine1
		{
			OFFSET 0.147000 13.837402 0.538800
			CHANNELS 3 Xrotation Yrotation Zrotation
			JOINT Spine2
			{
				OFFSET 0.168000 16.242897 -1.435500
				CHANNELS 3 Xrotation Yrotation Zrotation
				JOINT Neck
				{
					OFFSET 0.217200 18.631500 -1.679100
					CHANNELS 3 Xrotation Yrotation Zrotation
					JOINT Head
					{
						OFFSET 0.000000 6.599396 1.385900
						CHANNELS 3 Xrotation Yrotation Zrotation
						JOINT Hat
						{
							OFFSET -0.532200 27.220596 -10.096100
							CHANNELS 3 Xrotation Yrotation Zrotation
							End Site
							{
								OFFSET 0.000000 22.029861 0.000000
							}
						}
						JOINT HairD
						{
							OFFSET -10.777400 17.437393 -1.325900
							CHANNELS 3 Xrotation Yrotation Zrotation
							JOINT HairD1
							{
								OFFSET -3.290299 -11.051193 1.062200
								CHANNELS 3 Xrotation Yrotation Zrotation
								End Site
								{
									OFFSET 0.000000 11.579437 0.000000
								}
							}
						}
						JOINT HairB
						{
							OFFSET -10.777400 17.437393 1.467900
							CHANNELS 3 Xrotation Yrotation Zrotation
							JOINT HairB1
							{
								OFFSET -1.561200 -12.956299 3.590200
								CHANNELS 3 Xrotation Yrotation Zrotation
								End Site
								{
									OFFSET 0.000000 13.534866 0.000000
								}
							}
						}
						JOINT HairA
						{
							OFFSET 9.713100 17.437393 1.467900
							CHANNELS 3 Xrotation Yrotation Zrotation
							JOINT HairA1
							{
								OFFSET 1.561200 -12.956299 3.590200
								CHANNELS 3 Xrotation Yrotation Zrotation
								End Site
								{
									OFFSET 0.000000 13.534866 0.000000
								}
							}
						}
						JOINT HairC
						{
							OFFSET 9.713100 17.437393 -1.325900
							CHANNELS 3 Xrotation Yrotation Zrotation
							JOINT HairC1
							{
								OFFSET 3.290300 -11.051193 1.062200
								CHANNELS 3 Xrotation Yrotation Zrotation
								End Site
								{
									OFFSET 0.000000 11.579437 0.000000
								}
							}
						}
					}
				}
				JOINT LeftShoulder
				{
					OFFSET 5.101800 15.108002 -2.763700
					CHANNELS 3 Xrotation Yrotation Zrotation
					JOINT LeftArm
					{
						OFFSET 9.825497 2.506317 -1.597400
						CHANNELS 3 Xrotation Yrotation Zrotation
						JOINT LeftForeArm
						{
							OFFSET 21.966244 0.000000 0.000000
							CHANNELS 3 Xrotation Yrotation Zrotation
							JOINT LeftHand
							{
								OFFSET 33.879036 0.000000 0.000000
								CHANNELS 3 Xrotation Yrotation Zrotation
								JOINT LeftHandThumb1
								{
									OFFSET 6.715286 -2.359680 3.363841
									CHANNELS 3 Xrotation Yrotation Zrotation
									JOINT LeftHandThumb2
									{
										OFFSET 2.507072 -1.447464 1.447461
										CHANNELS 3 Xrotation Yrotation Zrotation
										JOINT LeftHandThumb3
										{
											OFFSET 2.898338 -1.673355 1.673357
											CHANNELS 3 Xrotation Yrotation Zrotation
											End Site
											{
												OFFSET -0.295959 3.727692 -0.131651
											}
										}
									}
								}
								JOINT LeftHandIndex1
								{
									OFFSET 14.190811 -0.254547 3.840278
									CHANNELS 3 Xrotation Yrotation Zrotation
									JOINT LeftHandIndex2
									{
										OFFSET 3.551727 0.000000 -0.000000
										CHANNELS 3 Xrotation Yrotation Zrotation
										JOINT LeftHandIndex3
										{
											OFFSET 2.894196 0.000000 0.000000
											CHANNELS 3 Xrotation Yrotation Zrotation
											End Site
											{
												OFFSET -1.000603 2.690872 0.366626
											}
										}
									}
								}
								JOINT LeftHandMiddle1
								{
									OFFSET 13.776489 0.000000 0.000000
									CHANNELS 3 Xrotation Yrotation Zrotation
									JOINT LeftHandMiddle2
									{
										OFFSET 3.438232 0.000000 0.000000
										CHANNELS 3 Xrotation Yrotation Zrotation
										JOINT LeftHandMiddle3
										{
											OFFSET 3.691551 0.000000 0.000000
											CHANNELS 3 Xrotation Yrotation Zrotation
											End Site
											{
												OFFSET -1.082298 3.499527 0.457670
											}
										}
									}
								}
								JOINT LeftHandRing1
								{
									OFFSET 13.966164 -0.268127 -3.067488
									CHANNELS 3 Xrotation Yrotation Zrotation
									JOINT LeftHandRing2
									{
										OFFSET 3.162567 0.000000 0.000000
										CHANNELS 3 Xrotation Yrotation Zrotation
										JOINT LeftHandRing3
										{
											OFFSET 3.324348 0.000000 0.000000
											CHANNELS 3 Xrotation Yrotation Zrotation
											End Site
											{
												OFFSET -0.861900 3.184998 0.405154
											}
										}
									}
								}
								JOINT LeftHandPinky1
								{
									OFFSET 13.131393 -0.168503 -5.746925
									CHANNELS 3 Xrotation Yrotation Zrotation
									JOINT LeftHandPinky2
									{
										OFFSET 2.849182 0.000000 0.000000
										CHANNELS 3 Xrotation Yrotation Zrotation
										JOINT LeftHandPinky3
										{
											OFFSET 2.805038 0.000000 0.000000
											CHANNELS 3 Xrotation Yrotation Zrotation
											End Site
											{
												OFFSET -0.882500 2.642609 0.325652
											}
										}
									}
								}
							}
							JOINT Left_Sleeve
							{
								OFFSET 6.592125 -0.646545 0.805568
								CHANNELS 3 Xrotation Yrotation Zrotation
								End Site
								{
									OFFSET -0.000179 20.275787 -0.000000
								}
							}
						}
					}
				}
				JOINT RightShoulder
				{
					OFFSET -5.731700 15.108002 -2.763700
					CHANNELS 3 Xrotation Yrotation Zrotation
					JOINT RightArm
					{
						OFFSET -9.825497 2.506317 -1.597400
						CHANNELS 3 Xrotation Yrotation Zrotation
						JOINT RightForeArm
						{
							OFFSET -21.966242 0.000000 0.000000
							CHANNELS 3 Xrotation Yrotation Zrotation
							JOINT RightHand
							{
								OFFSET -33.879032 0.000000 0.000000
								CHANNELS 3 Xrotation Yrotation Zrotation
								JOINT RightHandThumb1
								{
									OFFSET -6.715286 -2.359680 3.363841
									CHANNELS 3 Xrotation Yrotation Zrotation
									JOINT RightHandThumb2
									{
										OFFSET -2.507072 -1.447464 1.447461
										CHANNELS 3 Xrotation Yrotation Zrotation
										JOINT RightHandThumb3
										{
											OFFSET -2.898338 -1.673355 1.673357
											CHANNELS 3 Xrotation Yrotation Zrotation
											End Site
											{
												OFFSET 0.295959 3.727692 -0.131651
											}
										}
									}
								}
								JOINT RightHandIndex1
								{
									OFFSET -14.190811 -0.254547 3.840278
									CHANNELS 3 Xrotation Yrotation Zrotation
									JOINT RightHandIndex2
									{
										OFFSET -3.551727 0.000000 -0.000000
										CHANNELS 3 Xrotation Yrotation Zrotation
										JOINT RightHandIndex3
										{
											OFFSET -2.894196 0.000000 0.000000
											CHANNELS 3 Xrotation Yrotation Zrotation
											End Site
											{
												OFFSET 1.000603 2.690872 0.366626
											}
										}
									}
								}
								JOINT RightHandMiddle1
								{
									OFFSET -13.776489 0.000000 0.000000
									CHANNELS 3 Xrotation Yrotation Zrotation
									JOINT RightHandMiddle2
									{
										OFFSET -3.438232 0.000000 0.000000
										CHANNELS 3 Xrotation Yrotation Zrotation
										JOINT RightHandMiddle3
										{
											OFFSET -3.691551 0.000000 0.000000
											CHANNELS 3 Xrotation Yrotation Zrotation
											End Site
											{
												OFFSET 1.082298 3.499527 0.457670
											}
										}
									}
								}
								JOINT RightHandRing1
								{
									OFFSET -13.966164 -0.268127 -3.067488
									CHANNELS 3 Xrotation Yrotation Zrotation
									JOINT RightHandRing2
									{
										OFFSET -3.162567 0.000000 0.000000
										CHANNELS 3 Xrotation Yrotation Zrotation
										JOINT RightHandRing3
										{
											OFFSET -3.324348 0.000000 0.000000
											CHANNELS 3 Xrotation Yrotation Zrotation
											End Site
											{
												OFFSET 0.861900 3.184998 0.405154
											}
										}
									}
								}
								JOINT RightHandPinky1
								{
									OFFSET -13.131393 -0.168503 -5.746925
									CHANNELS 3 Xrotation Yrotation Zrotation
									JOINT RightHandPinky2
									{
										OFFSET -2.849182 0.000000 0.000000
										CHANNELS 3 Xrotation Yrotation Zrotation
										JOINT RightHandPinky3
										{
											OFFSET -2.805038 0.000000 0.000000
											CHANNELS 3 Xrotation Yrotation Zrotation
											End Site
											{
												OFFSET 0.882500 2.642609 0.325652
											}
										}
									}
								}
							}
							JOINT Right_Sleeve
							{
								OFFSET -6.592125 -0.646545 0.805568
								CHANNELS 3 Xrotation Yrotation Zrotation
								End Site
								{
									OFFSET 0.000179 20.275787 -0.000000
								}
							}
						}
					}
				}
				JOINT Bind_Right_JacketString
				{
					OFFSET -3.534800 11.969597 7.200700
					CHANNELS 3 Xrotation Yrotation Zrotation
					JOINT Bind_Right_JacketString1
					{
						OFFSET -0.319900 -6.102600 2.794100
						CHANNELS 3 Xrotation Yrotation Zrotation
						End Site
						{
							OFFSET 0.000000 6.719452 0.000000
						}
					}
				}
				JOINT Bind_Left_JacketString
				{
					OFFSET 2.904800 11.969597 7.200700
					CHANNELS 3 Xrotation Yrotation Zrotation
					JOINT Bind_Left_JacketString1
					{
						OFFSET 0.364800 -5.904503 3.186800
						CHANNELS 3 Xrotation Yrotation Zrotation
						End Site
						{
							OFFSET 0.000000 6.719513 0.000000
						}
					}
				}
				JOINT HairE
				{
					OFFSET 5.915200 17.612701 -11.592200
					CHANNELS 3 Xrotation Yrotation Zrotation
					JOINT HairE1
					{
						OFFSET 0.289200 -7.171898 -1.284500
						CHANNELS 3 Xrotation Yrotation Zrotation
						End Site
						{
							OFFSET 0.000000 7.291756 0.000000
						}
					}
				}
				JOINT HairF
				{
					OFFSET -0.864800 17.612701 -11.592200
					CHANNELS 3 Xrotation Yrotation Zrotation
					JOINT HairF1
					{
						OFFSET 0.000000 -14.087097 -2.127501
						CHANNELS 3 Xrotation Yrotation Zrotation
						End Site
						{
							OFFSET 0.000000 14.246841 0.000000
						}
					}
				}
				JOINT HairG
				{
					OFFSET -8.087700 17.612701 -11.592200
					CHANNELS 3 Xrotation Yrotation Zrotation
					JOINT HairG1
					{
						OFFSET -0.293600 -6.081398 -0.910100
						CHANNELS 3 Xrotation Yrotation Zrotation
						End Site
						{
							OFFSET 0.000000 6.156120 0.000000
						}
					}
				}
			}
		}
	}
	JOINT Pouch
	{
		OFFSET 0.000000 4.394501 10.847300
		CHANNELS 3 Xrotation Yrotation Zrotation
		End Site
		{
			OFFSET 0.000000 21.880577 0.000000
		}
	}
	JOINT Bag
	{
		OFFSET -13.229000 4.813004 -0.593300
		CHANNELS 3 Xrotation Yrotation Zrotation
		End Site
		{
			OFFSET 0.000000 21.880577 0.000000
		}
	}
	JOINT OccupyGuyFacialAnim_Joint
	{
		OFFSET 1.000000 -70.206398 -1.655000
		CHANNELS 3 Xrotation Yrotation Zrotation
		End Site
		{
			OFFSET 0.000000 21.880577 0.000000
		}
	}
}
MOTION
Frames: 4
Frame Time: 0.033333
-0.036115 69.835861 1.239318 -2.259904 -0.268021 -0.967174 -0.000000 -0.000000 0.000000 -22.669809 6.185484 -0.584724 66.222686 22.508438 1.142480 -4.196178 -0.331442 3.003767 0.000001 -0.000002 -0.000000 -0.000002 -0.000000 0.000000 -9.992727 -2.275355 6.157480 23.975026 -6.749654 -0.347508 -13.695158 0.458442 -3.798012 0.000000 0.000001 0.000000 -0.000001 0.000000 -0.000001 1.799709 -1.328386 0.934272 3.579705 -2.533197 0.673625 3.579706 -2.533199 0.673625 -2.439473 1.360551 -0.177269 -0.112025 5.844295 -0.079478 0.000000 -0.000000 -0.000000 0.000000 -0.000000 -0.000000 0.000000 -0.000000 -0.000000 0.000000 -0.000000 -0.000000 0.000000 0.000000 -0.000000 0.000000 -0.000000 -0.000000 0.000000 0.000000 -0.000000 0.000000 -0.000000 -0.000000 0.000000 -0.000000 -0.000000 0.442701 -8.235240 -13.151900 -0.624810 -8.808443 -59.472281 19.132400 -19.316347 6.827566 -5.405338 -8.531737 1.793575 25.111245 -2.687234 20.499105 9.304978 24.441168 -0.847867 0.000001 0.000001 -0.000006 0.599989 6.911492 -23.883884 2.733482 1.542668 -36.765986 -0.000001 -0.000001 0.000002 0.976157 7.422058 -32.221732 5.809223 1.256777 -45.781115 -0.000004 0.000004 0.000001 -1.227812 6.340709 -44.477861 7.491177 2.055259 -50.574443 -0.000001 -0.000004 -0.000000 -5.698666 1.174844 -43.952752 10.001141 3.459249 -50.341961 -0.000003 0.000000 -0.000002 -0.000002 0.000001 -0.000001 0.662847 2.643784 20.148728 -3.947857 -2.327090 62.260337 16.631070 11.939505 -3.785998 -4.421763 12.103415 -12.551300 3.824810 -12.345968 -1.042563 4.523899 -9.504799 0.488640 0.000000 0.000000 -0.000001 3.545367 -9.668669 69.326693 8.886337 -3.241682 112.372567 0.000000 -0.000001 0.000000 5.660029 -9.815698 93.151711 8.809075 -2.682470 83.366277 0.000001 0.000001 -0.000006 4.831695 -12.380516 97.852487 10.912786 -3.225624 91.663516 -0.000000 0.000000 -0.000001 0.270006 -10.740427 93.149772 10.737841 -3.968355 60.274316 -0.000000 0.000002 0.000002 -0.000001 -0.000000 -0.000000 -0.000001 -0.000000 0.000000 -0.000001 -0.000000 0.000000 -0.000001 -0.000000 0.000000 -0.000001 -0.000000 0.000000 -0.000001 -0.000000 0.000000 -0.000001 -0.000000 0.000000 -0.000001 -0.000000 0.000000 -0.000001 -0.000000 0.000000 -0.000001 -0.000000 0.000000 -0.000001 -0.000000 0.000000 -0.000000 -0.000000 0.000000 -0.000000 -0.000000 0.000000 -0.000000 -0.000000 0.000000 
0.049386 70.087372 4.411205 -1.853670 -1.174662 0.082844 0.000000 0.000000 -0.000000 -25.184823 5.516792 -2.607135 59.309914 20.480693 0.985758 -8.885017 -0.903224 7.302549 -0.000000 0.000000 0.000000 0.000000 -0.000000 0.000000 -7.796177 -2.850135 4.415762 24.472197 -2.821997 -0.118662 -14.605774 0.615570 -4.385684 -0.000000 0.000000 0.000000 0.000000 -0.000000 -0.000000 1.726385 -0.938696 0.623773 3.439510 -1.842327 0.288561 3.439505 -1.842325 0.288561 -5.208663 1.361338 -0.474569 2.723032 5.565983 0.398600 0.000000 0.000000 0.000000 0.000000 0.000000 0.000000 0.000000 0.000000 0.000000 0.000000 0.000000 -0.000000 -0.000000 0.000000 -0.000000 0.000000 0.000000 -0.000000 -0.000000 0.000000 -0.000000 0.000000 0.000000 0.000000 0.000000 0.000000 0.000000 0.449502 -7.391801 -13.642494 1.572601 -6.995986 -62.274748 21.051528 -16.355515 6.500542 -5.528205 -8.256344 0.193268 25.111249 -2.687232 20.499104 9.304985 24.441166 -0.847878 -0.000002 0.000002 -0.000001 0.599989 6.911491 -23.883884 2.733482 1.542666 -36.765986 -0.000001 -0.000003 -0.000004 0.976156 7.422061 -32.221725 5.809223 1.256776 -45.781119 0.000001 0.000001 0.000001 -1.227815 6.340707 -44.477857 7.491176 2.055259 -50.574440 0.000002 0.000004 -0.000002 -5.698667 1.174845 -43.952756 10.001147 3.459249 -50.341961 -0.000002 -0.000001 0.000003 0.000003 0.000000 -0.000000 0.655962 2.684161 20.151268 -3.534860 -3.629785 62.253691 15.837166 11.194404 -3.396593 -4.291031 12.742007 -12.845430 3.824814 -12.345970 -1.042563 4.523898 -9.504796 0.488636 -0.000000 -0.000001 0.000000 3.545368 -9.668669 69.326693 8.886338 -3.241682 112.372560 -0.000001 -0.000002 0.000002 5.660028 -9.815700 93.151711 8.809077 -2.682468 83.366284 0.000001 0.000000 0.000003 4.831694 -12.380517 97.852493 10.912787 -3.225625 91.663516 0.000001 -0.000000 0.000001 0.270008 -10.740426 93.149772 10.737838 -3.968356 60.274323 -0.000001 -0.000001 0.000000 -0.000000 -0.000001 -0.000000 -0.000000 -0.000000 -0.000000 -0.000000 0.000000 -0.000000 -0.000000 -0.000000 -0.000000 -0.000000 -0.000000 -0.000000 -0.000000 -0.000000 -0.000000 -0.000000 0.000000 -0.000000 -0.000000 -0.000000 -0.000000 -0.000000 -0.000000 -0.000000 -0.000000 -0.000000 -0.000000 -0.000000 0.000000 -0.000000 0.000000 0.000000 -0.000000 0.000000 0.000000 -0.000000 0.000000 0.000000 -0.000000 
0.181370 70.250984 7.509108 -0.956492 -2.434392 1.156499 0.000000 0.000000 -0.000000 -26.404647 3.944824 -4.162903 47.219178 19.401306 0.872603 -7.242232 -0.792023 7.123804 0.000000 0.000001 -0.000000 0.000001 0.000000 -0.000000 -6.279519 -3.795667 2.445318 25.141211 2.364777 0.151109 -15.894301 0.971306 -6.055047 -0.000000 -0.000000 -0.000000 0.000001 0.000000 -0.000000 1.591536 -0.522042 0.275757 3.176926 -1.078013 -0.075482 3.176927 -1.078014 -0.075482 -7.120144 1.450315 -1.003417 4.453077 5.355079 0.982426 0.000001 0.000000 0.000000 0.000001 0.000000 0.000000 0.000001 0.000000 0.000000 0.000001 0.000000 -0.000000 0.000000 0.000000 -0.000000 0.000001 0.000000 -0.000000 0.000000 0.000000 -0.000000 0.000001 0.000000 0.000000 0.000001 0.000000 0.000000 0.458471 -6.540986 -14.345086 3.746687 -5.031646 -64.798681 22.400130 -13.438075 5.807848 -5.596271 -7.865771 -1.059097 25.111249 -2.687231 20.499107 9.304979 24.441171 -0.847875 0.000002 -0.000003 -0.000000 0.599987 6.911491 -23.883879 2.733484 1.542667 -36.765990 0.000003 -0.000000 -0.000004 0.976157 7.422061 -32.221728 5.809222 1.256776 -45.781115 0.000001 0.000000 0.000004 -1.227813 6.340709 -44.477861 7.491176 2.055261 -50.574443 -0.000000 -0.000000 -0.000000 -5.698671 1.174846 -43.952756 10.001148 3.459247 -50.341964 -0.000001 0.000001 0.000001 0.000001 0.000000 0.000001 0.648767 2.727184 20.146253 -4.281985 -4.273407 62.147352 15.462732 8.409511 -2.558844 -4.046485 14.320952 -13.323764 3.824811 -12.345968 -1.042566 4.523898 -9.504798 0.488636 0.000001 -0.000001 -0.000000 3.545367 -9.668669 69.326686 8.886337 -3.241682 112.372567 -0.000002 -0.000002 -0.000000 5.660027 -9.815696 93.151711 8.809076 -2.682465 83.366284 0.000002 0.000000 -0.000001 4.831692 -12.380515 97.852487 10.912787 -3.225623 91.663516 -0.000001 0.000001 0.000001 0.270006 -10.740426 93.149765 10.737840 -3.968356 60.274323 -0.000000 -0.000001 0.000002 -0.000000 0.000000 -0.000000 0.000001 0.000000 -0.000000 0.000001 0.000000 -0.000000 0.000001 0.000000 0.000000 0.000001 0.000000 0.000000 0.000001 0.000000 -0.000000 0.000001 0.000000 -0.000000 0.000001 0.000000 0.000000 0.000001 0.000000 0.000000 0.000001 0.000000 -0.000000 0.000001 0.000000 -0.000000 0.000000 0.000000 -0.000000 0.000000 0.000000 -0.000000 0.000000 0.000000 -0.000000 
0.327846 70.286575 10.591047 0.370270 -3.825234 2.264919 -0.000000 0.000000 -0.000000 -25.993688 2.102506 -5.053784 31.451440 19.075480 0.933687 -2.419189 -0.423787 4.827808 -0.000000 -0.000000 -0.000000 -0.000001 -0.000001 0.000001 -5.249385 -4.767891 0.378783 25.893363 7.361741 0.400285 -17.979563 1.455339 -7.924854 -0.000000 0.000000 -0.000000 0.000000 0.000000 -0.000000 1.383268 -0.119323 -0.099202 2.765435 -0.290875 -0.438926 2.765432 -0.290877 -0.438926 -8.369662 1.590735 -1.523179 5.273709 5.244504 1.493733 0.000000 0.000000 -0.000000 0.000000 0.000000 -0.000000 0.000000 0.000000 -0.000000 0.000000 0.000000 -0.000000 -0.000000 0.000000 -0.000000 0.000000 0.000000 -0.000000 -0.000000 0.000000 -0.000000 0.000000 0.000000 -0.000000 0.000000 0.000000 -0.000000 0.476622 -5.671914 -15.151137 6.060083 -2.787224 -66.998111 23.384623 -10.792291 4.978071 -5.612718 -7.301897 -2.048071 25.111247 -2.687231 20.499105 9.304986 24.441175 -0.847877 0.000002 0.000003 -0.000001 0.599985 6.911492 -23.883879 2.733476 1.542667 -36.765990 -0.000000 0.000001 -0.000000 0.976157 7.422061 -32.221728 5.809223 1.256775 -45.781112 0.000001 -0.000000 0.000004 -1.227812 6.340709 -44.477857 7.491176 2.055260 -50.574443 -0.000001 0.000001 -0.000002 -5.698668 1.174846 -43.952752 10.001151 3.459250 -50.341961 -0.000001 -0.000001 0.000001 0.000004 0.000001 0.000000 0.640826 2.772752 20.134834 -3.429539 -5.660280 62.076004 15.424645 9.580406 -2.870577 -4.051910 13.546370 -13.546968 3.824811 -12.345969 -1.042568 4.523897 -9.504796 0.488640 0.000000 0.000000 0.000003 3.545368 -9.668666 69.326686 8.886337 -3.241679 112.372567 0.000001 0.000000 0.000002 5.660028 -9.815697 93.151705 8.809076 -2.682467 83.366277 0.000001 0.000000 -0.000001 4.831693 -12.380514 97.852487 10.912788 -3.225625 91.663516 -0.000001 -0.000001 -0.000001 0.270008 -10.740428 93.149765 10.737835 -3.968355 60.274323 0.000002 0.000000 0.000001 -0.000000 -0.000000 -0.000001 0.000000 0.000000 0.000000 0.000000 -0.000000 -0.000000 0.000000 0.000000 -0.000000 0.000000 0.000000 -0.000000 0.000000 0.000000 0.000000 0.000000 -0.000000 -0.000000 0.000000 0.000000 -0.000000 0.000000 0.000000 -0.000000 0.000000 0.000000 0.000000 0.000000 -0.000000 -0.000000 -0.000000 0.000000 -0.000000 -0.000000 0.000000 -0.000000 -0.000000 0.000000 -0.000000 
